P2
# Exercise image
24 7
15
11 15 10 14 2 15 6 2 9 4 12 0 4 9 2 13 15 10 6 7 14 0 4 4 
10 10 1 3 0 13 12 13 1 15 9 7 5 11 7 14 13 5 9 11 9 10 1 8 
14 11 6 13 2 0 4 0 1 10 12 0 7 14 4 2 12 10 3 6 9 14 14 14 
13 14 14 11 10 13 6 14 12 12 15 7 6 13 14 13 1 10 6 4 8 5 3 10 
6 9 0 8 8 0 0 2 12 2 1 8 8 13 13 2 5 13 8 4 13 10 2 11 
4 5 0 10 13 2 2 2 1 13 8 9 8 13 2 6 13 0 10 3 3 1 13 2 
5 11 11 10 11 7 15 10 15 7 3 12 15 7 10 9 13 5 14 14 8 1 2 13 
